# xmcd CD database file
#
# Track frame offsets:
#	150
#	4139
#	15304
#	56909
#	64922
#	83336
#	90023
#	133037
#	153309
#	167000
#	173361
#	209620
#
# Disc length: 3188 seconds
#
# Revision: 0
# Processed by: cddbd v1.5.2PL0 Copyright (c) Steve Scherf et al.
# Submitted via: CDex 1.51
#
DISCID=850c720c
DTITLE=Blink - The Epidemic of Ideas
DYEAR=2008
DGENRE=Jazz
TTITLE0=The Sun
TTITLE1=Secret Weapon: Part I
TTITLE2=Rivers and Tides
TTITLE3=Sources
TTITLE4=Displacement
TTITLE5=Secret Weapon: Part II
TTITLE6=Glass
TTITLE7=I Am
TTITLE8=Underground Games
TTITLE9=Three Illustrations
TTITLE10=Misadventures
TTITLE11=We Disappear
EXTD=YEAR: 2008
EXTT0=
EXTT1=
EXTT2=
EXTT3=
EXTT4=
EXTT5=
EXTT6=
EXTT7=
EXTT8=
EXTT9=
EXTT10=
EXTT11=
PLAYORDER=
